<svg xmlns="http://www.w3.org/2000/svg" viewBox="0 0 240 220" role="img" aria-labelledby="title desc">
  <title id="title">WyvernStore logo</title>
  <desc id="desc">Símbolo de wyvern estilizado azul inspirado en silueta de ave mítica</desc>
  <defs>
    <linearGradient id="wing" x1="0%" y1="0%" x2="100%" y2="100%">
      <stop offset="0%" stop-color="#9ac8ff"/>
      <stop offset="50%" stop-color="#6281c4"/>
      <stop offset="100%" stop-color="#2f3f6b"/>
    </linearGradient>
    <linearGradient id="body" x1="50%" y1="0%" x2="50%" y2="100%">
      <stop offset="0%" stop-color="#101427"/>
      <stop offset="100%" stop-color="#1f2e53"/>
    </linearGradient>
  </defs>
  <g fill="url(#wing)">
    <path d="M26 146c8-50 56-102 86-112l-18 78c-18 10-40 18-68 34z"/>
    <path d="M214 146c-8-50-56-102-86-112l18 78c18 10 40 18 68 34z"/>
  </g>
  <g fill="url(#body)">
    <path d="M106 56c10-8 28-8 38 0l-7 48h-24z"/>
    <path d="M112 104h16l10 44-18 40-18-40z"/>
  </g>
  <g fill="#dbe7ff" opacity="0.9">
    <circle cx="90" cy="112" r="10"/>
    <circle cx="150" cy="112" r="10"/>
  </g>
  <path d="M118 48c10-22 40-26 44-24-10 6-16 14-18 28" fill="none" stroke="#dbe7ff" stroke-width="5" stroke-linecap="round"/>
  <path d="M96 164c10 20 38 20 48 0" fill="none" stroke="#e0d7ff" stroke-width="6" stroke-linecap="round"/>
</svg>
